<?xml version="1.0" standalone="no"?>
<!DOCTYPE svg PUBLIC "-//W3C//DTD SVG 20010904//EN"
 "http://www.w3.org/TR/2001/REC-SVG-20010904/DTD/svg10.dtd">
<svg version="1.0" xmlns="http://www.w3.org/2000/svg"
 width="128.000000pt" height="128.000000pt" viewBox="0 0 128.000000 128.000000"
 preserveAspectRatio="xMidYMid meet">
<metadata>
Created by potrace 1.11, written by Peter Selinger 2001-2013
</metadata>
<g transform="translate(0.000000,128.000000) scale(0.100000,-0.100000)"
fill="#000000" stroke="none">
<path d="M635 1271 c-53 -14 -110 -48 -147 -89 -36 -39 -87 -120 -92 -144 -5
-23 -20 -53 -32 -65 -11 -11 -91 -46 -119 -53 -52 -12 -99 -60 -110 -111 -8
-36 15 -66 83 -106 23 -14 42 -29 42 -35 0 -5 6 -6 13 -2 6 4 1 -4 -13 -19
-14 -14 -32 -38 -40 -54 -8 -15 -30 -44 -50 -64 -54 -56 -69 -76 -76 -105 -5
-19 -4 -25 5 -20 6 4 11 3 11 -3 0 -6 6 -8 14 -5 14 6 18 -5 31 -93 4 -24 12
-46 18 -50 6 -4 8 0 4 9 -3 9 -3 19 1 22 3 4 7 13 9 21 2 8 5 21 7 28 2 6 7
27 11 45 4 17 12 32 17 32 5 0 6 5 2 12 -4 6 -3 8 4 4 10 -6 27 -79 21 -93 -2
-5 -9 -7 -15 -5 -12 2 -24 -18 -31 -51 -1 -10 -10 -31 -18 -48 -15 -28 -11
-35 18 -30 4 1 3 -8 -3 -20 -7 -11 -9 -23 -6 -26 3 -3 1 -14 -5 -24 -7 -15 -6
-19 5 -19 8 0 17 -9 21 -19 6 -18 40 -36 60 -31 6 2 42 4 80 4 51 1 74 -3 83
-14 8 -8 11 -10 8 -3 -4 6 -2 14 4 18 5 3 10 1 10 -6 0 -9 3 -9 14 0 10 8 16
9 21 1 4 -7 13 -7 27 1 12 7 18 7 14 1 -4 -6 4 -9 19 -7 14 1 28 -2 31 -6 3
-5 11 -9 17 -9 8 0 8 3 2 8 -5 4 -17 16 -25 27 -14 18 -14 19 2 7 9 -8 23 -10
29 -6 7 4 9 3 5 -4 -4 -6 4 -16 16 -23 19 -9 21 -9 11 2 -18 18 -16 33 2 17
32 -29 41 -34 63 -34 14 0 21 5 18 13 -4 9 4 11 24 9 16 -2 27 1 24 5 -10 16
9 9 23 -9 8 -9 11 -11 7 -3 -5 11 -2 13 14 9 12 -4 20 -3 17 1 -2 5 13 8 34 7
22 -1 37 -5 34 -10 -3 -5 2 -4 12 1 10 6 25 9 34 6 17 -4 56 51 54 77 -3 25
-37 145 -44 150 -5 4 -4 91 1 98 2 1 3 7 4 12 2 20 21 10 24 -12 2 -13 8 -28
12 -33 16 -20 23 -79 22 -182 -1 -62 2 -103 8 -103 12 0 11 -6 15 110 4 111
13 180 24 180 4 0 8 10 8 23 1 12 4 39 6 59 3 26 -1 43 -13 56 -27 29 -37 53
-39 102 -2 25 -4 56 -5 70 -1 14 2 30 6 36 13 18 12 68 -1 93 -8 14 -15 53
-17 87 -3 56 0 65 23 88 27 27 25 49 -2 26 -9 -7 -19 -10 -23 -6 -4 4 0 13 8
19 13 10 11 16 -12 39 -16 15 -28 23 -28 19 0 -4 5 -12 11 -18 18 -18 1 -37
-18 -21 -14 11 -15 10 -9 -10 14 -42 12 -142 -1 -142 -7 0 -13 5 -13 10 0 6
-3 9 -7 9 -15 -3 -92 34 -88 41 3 4 -6 11 -19 14 -25 6 -40 49 -31 91 2 11 4
25 4 31 1 15 46 44 74 49 31 6 97 37 97 45 0 7 23 17 59 25 7 2 18 8 24 14 12
12 -35 20 -113 19 -34 0 -76 8 -108 21 -58 23 -160 34 -207 22z m362 -653 l2
-52 -24 37 c-31 45 -32 62 -2 64 20 2 22 -3 24 -49z"/>
<path d="M997 95 c-4 -8 -3 -16 1 -19 4 -3 9 4 9 15 2 23 -3 25 -10 4z"/>
<path d="M193 75 c0 -8 4 -12 9 -9 4 3 8 9 8 15 0 5 -4 9 -8 9 -5 0 -9 -7 -9
-15z"/>
</g>
</svg>
